<?xml version="1.0" encoding="utf-8"?>
<!-- Generator: Adobe Illustrator 21.1.0, SVG Export Plug-In . SVG Version: 6.00 Build 0)  -->
<svg version="1.1" id="Layer_1" xmlns="http://www.w3.org/2000/svg" xmlns:xlink="http://www.w3.org/1999/xlink" x="0px" y="0px"
	 viewBox="0 0 335.8 60" style="enable-background:new 0 0 335.8 60;" xml:space="preserve">
<style type="text/css">
	.st0{fill:#FFFFFF;}
</style>
<path class="st0" d="M53,10.8L30,30L8.4,9.2C3.2,14.6,0,21.9,0,30c0,16.6,13.4,30,30,30s30-13.4,30-30C60,22.7,57.4,16,53,10.8z"/>
<path class="st0" d="M8.4,9.2L30,30V0C21.5,0,13.8,3.5,8.4,9.2z"/>
<path class="st0" d="M51.2,8.3L51.2,8.3l-18,14.8V0.1C33.2,0.1,42.5-0.8,51.2,8.3z"/>
<g>
	<path class="st0" d="M105.2,22.3c0,3.8-1.2,6.8-3.6,8.8c-2.4,2-5.8,3.1-10.2,3.1h-3.2v12.7h-7.6V11.2H92c4.3,0,7.6,0.9,9.9,2.8
		C104.1,15.8,105.2,18.6,105.2,22.3z M88.1,28h2.5c2.3,0,4.1-0.5,5.2-1.4c1.2-0.9,1.7-2.3,1.7-4c0-1.8-0.5-3.1-1.5-3.9
		c-1-0.8-2.5-1.3-4.6-1.3h-3.4V28z"/>
	<path class="st0" d="M118.8,46.9h-7.4v-38h7.4V46.9z"/>
	<path class="st0" d="M146,46.9l-1-3.5h-0.4c-0.8,1.3-1.9,2.3-3.4,2.9c-1.5,0.7-3.1,1-5,1c-3.2,0-5.6-0.9-7.3-2.6
		c-1.6-1.7-2.4-4.2-2.4-7.4V19.6h7.4v15.9c0,2,0.3,3.4,1,4.4c0.7,1,1.8,1.5,3.3,1.5c2.1,0,3.6-0.7,4.5-2.1c0.9-1.4,1.4-3.7,1.4-6.9
		V19.6h7.4v27.3H146z"/>
	<path class="st0" d="M178.6,38.8c0,2.8-1,4.9-2.9,6.4c-1.9,1.5-4.9,2.2-8.7,2.2c-2,0-3.7-0.1-5.1-0.4c-1.4-0.3-2.7-0.7-3.9-1.2
		v-6.2c1.4,0.7,2.9,1.2,4.7,1.6c1.7,0.4,3.3,0.7,4.6,0.7c2.7,0,4.1-0.8,4.1-2.3c0-0.6-0.2-1.1-0.5-1.4c-0.4-0.4-1-0.8-1.9-1.2
		c-0.9-0.5-2.1-1-3.5-1.6c-2.1-0.9-3.6-1.7-4.6-2.4c-1-0.7-1.7-1.6-2.1-2.6c-0.4-1-0.7-2.2-0.7-3.6c0-2.4,0.9-4.3,2.8-5.6
		c1.9-1.3,4.5-2,8-2c3.3,0,6.5,0.7,9.6,2.1l-2.2,5.4c-1.4-0.6-2.6-1.1-3.8-1.4c-1.2-0.4-2.4-0.6-3.6-0.6c-2.2,0-3.3,0.6-3.3,1.8
		c0,0.7,0.4,1.2,1.1,1.7c0.7,0.5,2.3,1.2,4.7,2.2c2.1,0.9,3.7,1.7,4.7,2.4c1,0.7,1.7,1.6,2.2,2.6C178.3,36.2,178.6,37.4,178.6,38.8z
		"/>
	<path class="st0" d="M201.7,46.9l-1.4-3.7h-0.2c-1.3,1.6-2.5,2.7-3.9,3.3c-1.3,0.6-3.1,0.9-5.2,0.9c-2.6,0-4.7-0.7-6.2-2.2
		c-1.5-1.5-2.3-3.6-2.3-6.4c0-2.9,1-5,3-6.4c2-1.4,5.1-2.1,9.2-2.3l4.7-0.1v-1.2c0-2.8-1.4-4.2-4.2-4.2c-2.2,0-4.7,0.7-7.7,2l-2.5-5
		c3.1-1.6,6.6-2.5,10.4-2.5c3.7,0,6.5,0.8,8.4,2.4s2.9,4,2.9,7.3v18.2H201.7z M199.5,34.2l-2.9,0.1c-2.2,0.1-3.8,0.5-4.8,1.2
		c-1.1,0.7-1.6,1.8-1.6,3.3c0,2.1,1.2,3.1,3.6,3.1c1.7,0,3.1-0.5,4.1-1.5c1-1,1.6-2.3,1.6-4V34.2z"/>
	<path class="st0" d="M223.2,47.4c-3.2,0-5.7-1.2-7.6-3.7c-1.8-2.5-2.7-5.9-2.7-10.4c0-4.5,0.9-8,2.8-10.5c1.9-2.5,4.4-3.7,7.7-3.7
		c3.4,0,6.1,1.3,7.9,4h0.2c-0.4-2-0.6-3.8-0.6-5.4V8.9h7.5v38h-5.7l-1.4-3.5h-0.3C229.3,46,226.7,47.4,223.2,47.4z M225.8,41.4
		c1.9,0,3.3-0.6,4.2-1.7c0.9-1.1,1.4-3,1.5-5.6v-0.8c0-2.9-0.5-5-1.4-6.3c-0.9-1.3-2.4-1.9-4.4-1.9c-1.7,0-3,0.7-3.9,2.1
		c-0.9,1.4-1.4,3.5-1.4,6.1s0.5,4.7,1.4,6C222.8,40.7,224.1,41.4,225.8,41.4z"/>
	<path class="st0" d="M270.6,46.9h-7.4V30.9c0-2-0.3-3.4-1-4.4c-0.7-1-1.7-1.5-3.1-1.5c-1.9,0-3.3,0.7-4.2,2.1
		c-0.9,1.4-1.3,3.7-1.3,6.9v12.8h-7.4V19.6h5.7l1,3.5h0.4c0.7-1.3,1.8-2.2,3.2-2.9c1.4-0.7,3-1.1,4.8-1.1c4.1,0,6.9,1.3,8.3,4h0.7
		c0.7-1.3,1.8-2.3,3.2-3c1.4-0.7,3-1,4.8-1c3.1,0,5.4,0.8,7,2.4c1.6,1.6,2.4,4.1,2.4,7.6v17.8h-7.5V30.9c0-2-0.3-3.4-1-4.4
		c-0.7-1-1.7-1.5-3.1-1.5c-1.8,0-3.2,0.7-4.1,2c-0.9,1.3-1.4,3.4-1.4,6.2V46.9z"/>
	<path class="st0" d="M295,12.5c0-2.4,1.4-3.6,4.1-3.6c2.7,0,4.1,1.2,4.1,3.6c0,1.2-0.3,2.1-1,2.7c-0.7,0.6-1.7,1-3,1
		C296.3,16.2,295,15,295,12.5z M302.7,46.9h-7.4V19.6h7.4V46.9z"/>
	<path class="st0" d="M335.8,46.9h-7.4V30.9c0-2-0.4-3.4-1-4.4c-0.7-1-1.8-1.5-3.3-1.5c-2.1,0-3.6,0.7-4.5,2.1
		c-0.9,1.4-1.4,3.7-1.4,6.9v12.8h-7.4V19.6h5.7l1,3.5h0.4c0.8-1.3,2-2.3,3.4-3c1.5-0.7,3.1-1,5-1c3.2,0,5.6,0.9,7.2,2.6
		c1.6,1.7,2.5,4.2,2.5,7.4V46.9z"/>
</g>
</svg>
